<svg width="189" height="173" viewBox="0 0 189 173" fill="none" xmlns="http://www.w3.org/2000/svg">
<g filter="url(#filter0_d_82_10)">
<path d="M140.772 80.2961C140.772 75.2482 135.738 69.0787 128.769 69.0787H63.3293C55.5848 69.0787 51.3254 75.8092 51.3254 79.5483V98.9919C51.3254 104.975 56.7465 110.583 63.7163 110.583H128.854C135.738 110.209 140.772 104.975 140.772 98.9919V80.2961Z" fill="white"/>
<path fill-rule="evenodd" clip-rule="evenodd" d="M125.336 52.2509C138.969 52.2509 150.02 62.9212 150.02 76.0837V126.728C150.02 139.891 138.969 150.561 125.336 150.561H66.7113C53.0782 150.561 42.0266 139.891 42.0266 126.728V76.0837C42.0266 62.9212 53.0782 52.2509 66.7113 52.2509H125.336ZM128.421 69.134C135.238 69.134 140.764 74.4692 140.764 81.0504V98.4319C140.764 105.013 135.238 110.348 128.421 110.348H63.6253C56.809 110.348 51.2832 105.013 51.2832 98.4319V81.0504C51.2832 74.4692 56.809 69.134 63.6253 69.134H128.421Z" fill="#AFD6FF"/>
<path d="M156.191 76.0837C156.191 59.6306 142.377 46.2928 125.336 46.2928H66.7114C49.67 46.2928 35.8555 59.6306 35.8555 76.0837V122.26H42.0266L42.0267 76.0837C42.0267 62.9212 53.0783 52.2509 66.7114 52.2509H125.336C138.969 52.2509 150.02 62.9212 150.02 76.0837V122.26H156.191V76.0837Z" fill="black"/>
<path d="M78.2183 89.741C78.2183 92.6199 80.6353 94.9549 83.6183 94.9549C86.6003 94.9549 89.0173 92.6199 89.0173 89.741C89.0173 86.8617 86.6003 84.5276 83.6183 84.5276C80.6353 84.5276 78.2183 86.8617 78.2183 89.741Z" fill="#EEC879"/>
<path fill-rule="evenodd" clip-rule="evenodd" d="M83.6174 100.913C77.2274 100.913 72.0464 95.9109 72.0464 89.7408C72.0464 83.5709 77.2274 78.5692 83.6174 78.5692C90.0084 78.5692 95.1884 83.5709 95.1884 89.7408C95.1884 95.9109 90.0084 100.913 83.6174 100.913ZM83.6184 94.9549C80.6354 94.9549 78.2184 92.6199 78.2184 89.741C78.2184 86.8617 80.6354 84.5276 83.6184 84.5276C86.6004 84.5276 89.0174 86.8617 89.0174 89.741C89.0174 92.6199 86.6004 94.9549 83.6184 94.9549Z" fill="black"/>
<path d="M107.443 89.7408C107.443 92.6199 109.861 94.9539 112.843 94.9539C115.825 94.9539 118.242 92.6199 118.242 89.7408C118.242 86.8615 115.825 84.5274 112.843 84.5274C109.861 84.5274 107.443 86.8615 107.443 89.7408Z" fill="#EEC879"/>
<path fill-rule="evenodd" clip-rule="evenodd" d="M112.843 100.913C106.452 100.913 101.272 95.9109 101.272 89.7408C101.272 83.5709 106.452 78.5692 112.843 78.5692C119.233 78.5692 124.413 83.5709 124.413 89.7408C124.413 95.9109 119.233 100.913 112.843 100.913ZM112.843 94.9539C109.861 94.9539 107.443 92.6199 107.443 89.7408C107.443 86.8615 109.861 84.5274 112.843 84.5274C115.825 84.5274 118.242 86.8615 118.242 89.7408C118.242 92.6199 115.825 94.9539 112.843 94.9539Z" fill="black"/>
<path d="M114.891 125.704C114.891 130.401 110.746 134.641 105.634 134.641H90.2062C85.0942 134.641 80.9502 130.401 80.9502 125.704V124.214H85.7872C85.7872 128.157 87.3362 130.173 91.7492 130.173H104.091C108.633 130.173 110.262 127.784 110.262 124.214H114.891V125.704Z" fill="black"/>
<path d="M88.1472 26.1873C88.1472 30.3593 91.6502 33.7413 95.9712 33.7413C100.292 33.7413 103.795 30.3593 103.795 26.1873C103.795 22.0154 100.292 18.6333 95.9712 18.6333C91.6502 18.6333 88.1472 22.0154 88.1472 26.1873Z" fill="#11B177"/>
<path d="M76.9273 136.282C76.9273 133.212 74.3493 130.724 71.1703 130.724H53.9017C50.7226 130.724 48.1455 133.212 48.1455 136.282C48.1455 139.351 50.7226 141.839 53.9017 141.839H71.1703C74.3493 141.839 76.9273 139.351 76.9273 136.282Z" fill="#343B44"/>
<path fill-rule="evenodd" clip-rule="evenodd" d="M95.9703 42.3743C86.7113 42.3743 79.2053 35.127 79.2053 26.1871C79.2053 17.2472 86.7113 10 95.9703 10C105.23 10 112.736 17.2472 112.736 26.1871C112.736 35.127 105.23 42.3743 95.9703 42.3743ZM95.9713 33.7413C91.6503 33.7413 88.1473 30.3593 88.1473 26.1873C88.1473 22.0154 91.6503 18.6333 95.9713 18.6333C100.292 18.6333 103.795 22.0154 103.795 26.1873C103.795 30.3593 100.292 33.7413 95.9713 33.7413Z" fill="black"/>
<path d="M99.3403 42.0472C99.3403 42.0472 97.8453 42.3743 95.9703 42.3743C94.3063 42.3743 93.1453 42.1453 93.1453 42.1453V51.8785H99.3403V42.0472Z" fill="black"/>
<path d="M155.486 122.26V83.5314H163.661C169.625 83.5314 174.46 88.1996 174.46 93.9579V111.833C174.46 117.591 169.625 122.26 163.661 122.26H155.486Z" fill="black"/>
<path fill-rule="evenodd" clip-rule="evenodd" d="M18.3699 111.833C18.3699 116.349 21.3433 120.194 25.503 121.643H25.421V129.707C25.421 135.466 30.256 140.134 36.2203 140.134H43.0995C44.7223 144.374 48.9464 147.397 53.9017 147.397H71.1703C77.5283 147.397 82.6833 142.42 82.6833 136.282C82.6833 130.143 77.5283 125.166 71.1703 125.166H53.9017C47.7575 125.166 42.7376 129.813 42.4065 135.666H36.2203C32.8122 135.666 30.0493 132.998 30.0493 129.707V122.26H35.8554L35.8562 83.5312H29.1693C23.2049 83.5312 18.3699 88.1994 18.3699 93.9579V111.833ZM76.9273 136.282C76.9273 133.212 74.3493 130.724 71.1703 130.724H53.9017C50.7226 130.724 48.1455 133.212 48.1455 136.282C48.1455 139.351 50.7226 141.839 53.9017 141.839H71.1703C74.3493 141.839 76.9273 139.351 76.9273 136.282Z" fill="black"/>
<path d="M128.768 150.218C138.836 148.723 143.732 142.887 146.193 139.375C146.193 139.375 140.385 144.984 129.93 145.358C119.475 145.731 93.9193 145.731 77.2693 145.731C74.9453 147.975 72.2353 147.601 54.8103 147.601C54.8103 147.601 60.3903 149.945 62.9423 150.218C66.4263 150.592 77.6563 150.592 77.6563 150.592C77.6563 150.592 91.8433 150.618 103.987 150.592C115.829 150.567 121.024 150.966 128.768 150.218Z" fill="#3F97F5"/>
<path d="M73.7843 136.01C73.7843 137.455 72.5703 138.627 71.0733 138.627C69.5763 138.627 68.3633 137.455 68.3633 136.01C68.3633 134.564 69.5763 133.392 71.0733 133.392C72.5703 133.392 73.7843 134.564 73.7843 136.01Z" fill="#F13544"/>
<path d="M101.663 24.5827C101.663 26.0283 100.45 27.2001 98.9532 27.2001C97.4562 27.2001 96.2422 26.0283 96.2422 24.5827C96.2422 23.1372 97.4562 21.9653 98.9532 21.9653C100.45 21.9653 101.663 23.1372 101.663 24.5827Z" fill="#8FD8B1"/>
</g>
<defs>
<filter id="filter0_d_82_10" x="0.469873" y="0.1" width="187.891" height="172.476" filterUnits="userSpaceOnUse" color-interpolation-filters="sRGB">
<feFlood flood-opacity="0" result="BackgroundImageFix"/>
<feColorMatrix in="SourceAlpha" type="matrix" values="0 0 0 0 0 0 0 0 0 0 0 0 0 0 0 0 0 0 127 0" result="hardAlpha"/>
<feOffset dx="-2" dy="6"/>
<feGaussianBlur stdDeviation="7.95"/>
<feComposite in2="hardAlpha" operator="out"/>
<feColorMatrix type="matrix" values="0 0 0 0 0 0 0 0 0 0 0 0 0 0 0 0 0 0 0.25 0"/>
<feBlend mode="normal" in2="BackgroundImageFix" result="effect1_dropShadow_82_10"/>
<feBlend mode="normal" in="SourceGraphic" in2="effect1_dropShadow_82_10" result="shape"/>
</filter>
</defs>
</svg>
