<svg width="271" height="262" viewBox="0 0 271 262" fill="none" xmlns="http://www.w3.org/2000/svg">
<g filter="url(#filter0_d_2_22)">
<path d="M181.68 90.2502C181.68 85.2023 176.646 79.0328 169.677 79.0328H104.237C96.4925 79.0328 92.2331 85.7633 92.2331 89.5024V108.946C92.2331 114.929 97.6542 120.537 104.624 120.537H169.762C176.646 120.163 181.68 114.929 181.68 108.946V90.2502Z" fill="white"/>
<path fill-rule="evenodd" clip-rule="evenodd" d="M166.244 62.205C179.877 62.205 190.928 72.8753 190.928 86.0378V136.682C190.928 149.845 179.877 160.515 166.244 160.515H107.619C93.9859 160.515 82.9343 149.845 82.9343 136.682V86.0378C82.9343 72.8753 93.9859 62.205 107.619 62.205H166.244ZM169.329 79.0881C176.146 79.0881 181.672 84.4233 181.672 91.0045V108.386C181.672 114.967 176.146 120.302 169.329 120.302H104.533C97.7167 120.302 92.1909 114.967 92.1909 108.386V91.0045C92.1909 84.4233 97.7167 79.0881 104.533 79.0881H169.329Z" fill="#AFD6FF"/>
<path d="M197.099 86.0378C197.099 69.5847 183.285 56.2469 166.244 56.2469H107.619C90.5776 56.2469 76.7631 69.5847 76.7631 86.0378V132.214H82.9342L82.9343 86.0378C82.9343 72.8753 93.9859 62.205 107.619 62.205H166.244C179.877 62.205 190.928 72.8753 190.928 86.0378L190.928 132.214H197.099V86.0378Z" fill="black"/>
<path d="M119.126 99.6951C119.126 102.574 121.543 104.909 124.526 104.909C127.508 104.909 129.925 102.574 129.925 99.6951C129.925 96.8158 127.508 94.4817 124.526 94.4817C121.543 94.4817 119.126 96.8158 119.126 99.6951Z" fill="#EEC879"/>
<path fill-rule="evenodd" clip-rule="evenodd" d="M124.525 110.867C118.135 110.867 112.954 105.865 112.954 99.6949C112.954 93.525 118.135 88.5233 124.525 88.5233C130.916 88.5233 136.096 93.525 136.096 99.6949C136.096 105.865 130.916 110.867 124.525 110.867ZM124.526 104.909C121.543 104.909 119.126 102.574 119.126 99.6951C119.126 96.8158 121.543 94.4817 124.526 94.4817C127.508 94.4817 129.925 96.8158 129.925 99.6951C129.925 102.574 127.508 104.909 124.526 104.909Z" fill="black"/>
<path d="M148.351 99.6949C148.351 102.574 150.769 104.908 153.751 104.908C156.733 104.908 159.15 102.574 159.15 99.6949C159.15 96.8156 156.733 94.4815 153.751 94.4815C150.769 94.4815 148.351 96.8156 148.351 99.6949Z" fill="#EEC879"/>
<path fill-rule="evenodd" clip-rule="evenodd" d="M153.751 110.867C147.36 110.867 142.18 105.865 142.18 99.6949C142.18 93.525 147.36 88.5233 153.751 88.5233C160.141 88.5233 165.321 93.525 165.321 99.6949C165.321 105.865 160.141 110.867 153.751 110.867ZM153.751 104.908C150.769 104.908 148.351 102.574 148.351 99.6949C148.351 96.8156 150.769 94.4815 153.751 94.4815C156.733 94.4815 159.15 96.8156 159.15 99.6949C159.15 102.574 156.733 104.908 153.751 104.908Z" fill="black"/>
<path d="M155.799 135.658C155.799 140.355 151.654 144.595 146.542 144.595H131.114C126.002 144.595 121.858 140.355 121.858 135.658V134.168H126.695C126.695 138.111 128.244 140.127 132.657 140.127L144.999 140.127C149.541 140.127 151.17 137.738 151.17 134.168H155.799V135.658Z" fill="black"/>
<path d="M129.055 36.1414C129.055 40.3134 132.558 43.6954 136.879 43.6954C141.2 43.6954 144.703 40.3134 144.703 36.1414C144.703 31.9695 141.2 28.5874 136.879 28.5874C132.558 28.5874 129.055 31.9695 129.055 36.1414Z" fill="#11B177"/>
<path d="M117.835 146.236C117.835 143.166 115.257 140.678 112.078 140.678H94.8094C91.6303 140.678 89.0532 143.166 89.0532 146.236C89.0532 149.305 91.6303 151.793 94.8094 151.793H112.078C115.257 151.793 117.835 149.305 117.835 146.236Z" fill="#343B44"/>
<path fill-rule="evenodd" clip-rule="evenodd" d="M136.878 52.3284C127.619 52.3284 120.113 45.0811 120.113 36.1412C120.113 27.2013 127.619 19.9541 136.878 19.9541C146.138 19.9541 153.644 27.2013 153.644 36.1412C153.644 45.0811 146.138 52.3284 136.878 52.3284ZM136.879 43.6954C132.558 43.6954 129.055 40.3134 129.055 36.1414C129.055 31.9695 132.558 28.5874 136.879 28.5874C141.2 28.5874 144.703 31.9695 144.703 36.1414C144.703 40.3134 141.2 43.6954 136.879 43.6954Z" fill="black"/>
<path d="M140.248 52.0013C140.248 52.0013 138.753 52.3284 136.878 52.3284C135.214 52.3284 134.053 52.0994 134.053 52.0994V61.8326H140.248V52.0013Z" fill="black"/>
<path d="M196.394 132.214V93.4855H204.569C210.533 93.4855 215.368 98.1537 215.368 103.912V121.787C215.368 127.545 210.533 132.214 204.569 132.214H196.394Z" fill="black"/>
<path fill-rule="evenodd" clip-rule="evenodd" d="M59.2776 121.787C59.2776 126.303 62.251 130.148 66.4107 131.597H66.3287V139.661C66.3287 145.42 71.1637 150.088 77.128 150.088L84.0072 150.088C85.63 154.328 89.8541 157.351 94.8094 157.351H112.078C118.436 157.351 123.591 152.374 123.591 146.236C123.591 140.097 118.436 135.12 112.078 135.12H94.8094C88.6652 135.12 83.6453 139.767 83.3142 145.62L77.128 145.62C73.7199 145.62 70.957 142.952 70.957 139.661V132.214L76.7631 132.214L76.7639 93.4853H70.077C64.1126 93.4853 59.2776 98.1535 59.2776 103.912V121.787ZM117.835 146.236C117.835 143.166 115.257 140.678 112.078 140.678H94.8094C91.6303 140.678 89.0532 143.166 89.0532 146.236C89.0532 149.305 91.6303 151.793 94.8094 151.793H112.078C115.257 151.793 117.835 149.305 117.835 146.236Z" fill="black"/>
<path d="M169.676 160.172C179.744 158.677 184.64 152.841 187.101 149.329C187.101 149.329 181.293 154.938 170.838 155.312C160.383 155.685 134.827 155.685 118.177 155.685C115.853 157.929 113.143 157.555 95.718 157.555C95.718 157.555 101.298 159.899 103.85 160.172C107.334 160.546 118.564 160.546 118.564 160.546C118.564 160.546 132.751 160.572 144.895 160.546C156.737 160.521 161.932 160.92 169.676 160.172Z" fill="#3F97F5"/>
<path d="M114.692 145.964C114.692 147.409 113.478 148.581 111.981 148.581C110.484 148.581 109.271 147.409 109.271 145.964C109.271 144.518 110.484 143.346 111.981 143.346C113.478 143.346 114.692 144.518 114.692 145.964Z" fill="#F13544"/>
<path d="M142.571 34.5368C142.571 35.9824 141.358 37.1542 139.861 37.1542C138.364 37.1542 137.15 35.9824 137.15 34.5368C137.15 33.0913 138.364 31.9194 139.861 31.9194C141.358 31.9194 142.571 33.0913 142.571 34.5368Z" fill="#8FD8B1"/>
<path d="M58.2517 223.052C55.7318 223.052 53.6642 222.297 52.0489 220.788C50.4336 219.279 49.6259 217.016 49.6259 213.998V202.022C49.6259 201.393 49.3028 201.079 48.6567 201.079H46.9122C46.0722 201.079 45.3615 200.827 44.78 200.325C44.1985 199.759 43.9077 199.067 43.9077 198.25C43.9077 197.37 44.1985 196.647 44.78 196.081C45.3615 195.515 46.0722 195.232 46.9122 195.232H48.6567C49.3028 195.232 49.6259 194.918 49.6259 194.289V186.368C49.6259 185.487 49.9167 184.796 50.4982 184.293C51.1443 183.727 51.9197 183.444 52.8242 183.444C53.7934 183.444 54.5688 183.727 55.1503 184.293C55.7964 184.796 56.1195 185.487 56.1195 186.368V194.289C56.1195 194.918 56.4425 195.232 57.0886 195.232H62.3222C63.0976 195.232 63.776 195.515 64.3575 196.081C64.939 196.647 65.2298 197.37 65.2298 198.25C65.2298 199.067 64.939 199.759 64.3575 200.325C63.8406 200.827 63.1299 201.079 62.2253 201.079H57.0886C56.4425 201.079 56.1195 201.393 56.1195 202.022V213.15C56.1195 215.79 57.2179 217.11 59.4147 217.11C60.0608 217.11 60.7392 217.016 61.45 216.828C62.1607 216.639 62.6453 216.545 62.9038 216.545C63.8083 216.545 64.4868 216.828 64.939 217.393C65.4559 217.959 65.7144 218.619 65.7144 219.374C65.7144 219.94 65.5529 220.505 65.2298 221.071C64.9067 221.574 64.3898 221.951 63.6791 222.203C62.9684 222.454 62.0638 222.643 60.9654 222.769C59.9316 222.957 59.027 223.052 58.2517 223.052Z" fill="#83C2FF"/>
<path d="M79.2088 223.052C76.4305 223.052 73.9429 222.423 71.7461 221.166C69.5492 219.908 67.837 218.179 66.6094 215.979C65.3817 213.716 64.7679 211.201 64.7679 208.435C64.7679 205.731 65.3817 203.311 66.6094 201.173C67.837 199.036 69.5492 197.37 71.7461 196.175C73.9429 194.918 76.4305 194.289 79.2088 194.289C81.0179 194.289 82.6332 194.603 84.0547 195.232C85.4762 195.798 86.7038 196.552 87.7376 197.495C87.8668 196.615 88.2545 195.955 88.9006 195.515C89.5468 195.012 90.2575 194.761 91.0329 194.761C91.8728 194.761 92.6159 195.044 93.262 195.609C93.9727 196.112 94.3281 196.898 94.3281 197.967V220.128C94.3281 221.071 93.9727 221.794 93.262 222.297C92.6159 222.8 91.8728 223.052 91.0329 223.052C90.1929 223.052 89.4175 222.8 88.7068 222.297C88.0607 221.794 87.7376 221.071 87.7376 220.128V219.751C86.7038 220.757 85.4762 221.543 84.0547 222.109C82.6332 222.737 81.0179 223.052 79.2088 223.052ZM79.7903 217.205C82.2456 217.205 84.1839 216.419 85.6054 214.847C87.0269 213.213 87.7376 211.075 87.7376 208.435C87.7376 205.92 87.0269 203.908 85.6054 202.399C84.1839 200.89 82.2456 200.136 79.7903 200.136C77.2704 200.136 75.2351 200.89 73.6844 202.399C72.1337 203.908 71.3584 205.92 71.3584 208.435C71.3584 211.075 72.1337 213.213 73.6844 214.847C75.2351 216.419 77.2704 217.205 79.7903 217.205Z" fill="#83C2FF"/>
<path d="M107.834 223.052C105.96 223.052 104.054 222.8 102.116 222.297C100.177 221.857 98.465 221.134 96.979 220.128C96.2036 219.437 95.8159 218.682 95.8159 217.865C95.8159 217.048 96.139 216.325 96.7851 215.696C97.4959 215.067 98.2712 214.753 99.1112 214.753C99.5634 214.753 100.016 214.879 100.468 215.13C101.631 215.822 102.956 216.387 104.442 216.828C105.992 217.205 107.446 217.393 108.803 217.393C110.095 217.393 111.194 217.173 112.098 216.733C113.067 216.293 113.552 215.57 113.552 214.564C113.552 213.558 113.1 212.804 112.195 212.301C111.291 211.798 109.74 211.421 107.543 211.169C106.639 211.044 105.54 210.886 104.248 210.698C103.02 210.509 101.793 210.163 100.565 209.661C99.3373 209.158 98.3035 208.403 97.4636 207.397C96.6236 206.391 96.2036 205.04 96.2036 203.342C96.2036 200.576 97.2374 198.376 99.305 196.741C101.437 195.106 104.28 194.289 107.834 194.289C109.901 194.289 111.84 194.541 113.649 195.044C115.523 195.546 116.912 196.175 117.816 196.93C118.527 197.495 118.883 198.156 118.883 198.91C118.883 199.727 118.592 200.45 118.01 201.079C117.429 201.708 116.718 202.022 115.878 202.022C115.426 202.022 115.006 201.928 114.618 201.739C113.584 201.173 112.421 200.765 111.129 200.513C109.901 200.199 108.706 200.042 107.543 200.042C106.186 200.042 105.023 200.262 104.054 200.702C103.149 201.079 102.697 201.708 102.697 202.588C102.697 203.216 102.956 203.782 103.473 204.285C104.054 204.725 105.508 205.103 107.834 205.417C108.932 205.543 110.16 205.731 111.517 205.983C112.938 206.234 114.295 206.643 115.587 207.209C116.88 207.712 117.946 208.529 118.786 209.661C119.626 210.792 120.046 212.332 120.046 214.281C120.046 216.293 119.464 217.959 118.301 219.279C117.138 220.537 115.62 221.48 113.746 222.109C111.937 222.737 109.966 223.052 107.834 223.052Z" fill="#83C2FF"/>
<path d="M125.283 223.052C124.443 223.052 123.668 222.8 122.957 222.297C122.311 221.794 121.988 221.071 121.988 220.128V184.293C121.988 183.224 122.311 182.438 122.957 181.935C123.668 181.37 124.443 181.087 125.283 181.087C126.123 181.087 126.866 181.37 127.512 181.935C128.223 182.438 128.578 183.224 128.578 184.293V202.682C128.578 203.311 128.675 203.625 128.869 203.625C129.063 203.625 129.321 203.499 129.644 203.248L141.662 194.855C142.373 194.478 143.019 194.289 143.601 194.289C144.505 194.289 145.248 194.603 145.83 195.232C146.411 195.798 146.702 196.427 146.702 197.118C146.702 198.187 146.185 199.036 145.151 199.664L135.266 205.7C134.684 206.077 134.393 206.454 134.393 206.831C134.393 207.209 134.619 207.617 135.072 208.057L145.636 217.771C146.347 218.588 146.702 219.342 146.702 220.034C146.702 220.851 146.379 221.543 145.733 222.109C145.087 222.737 144.344 223.052 143.504 223.052C142.664 223.052 141.888 222.706 141.178 222.014L129.838 211.075C129.386 210.635 129.095 210.415 128.966 210.415C128.707 210.415 128.578 210.792 128.578 211.547V220.128C128.578 221.071 128.223 221.794 127.512 222.297C126.866 222.8 126.123 223.052 125.283 223.052Z" fill="#83C2FF"/>
<path d="M164.361 223.052C162.548 223.052 160.929 222.743 159.505 222.127C158.08 221.572 156.85 220.801 155.814 219.814V220.184C155.814 221.109 155.458 221.818 154.745 222.312C154.098 222.805 153.353 223.052 152.511 223.052C151.67 223.052 150.893 222.805 150.18 222.312C149.533 221.818 149.209 221.109 149.209 220.184V185.038C149.209 183.99 149.533 183.219 150.18 182.726C150.893 182.171 151.67 181.894 152.511 181.894C153.353 181.894 154.098 182.171 154.745 182.726C155.458 183.219 155.814 183.99 155.814 185.038V197.987C156.85 197 158.08 196.23 159.505 195.675C160.929 195.12 162.548 194.842 164.361 194.842C167.21 194.842 169.703 195.459 171.84 196.692C174.042 197.864 175.758 199.498 176.988 201.594C178.218 203.69 178.834 206.064 178.834 208.716C178.834 211.429 178.218 213.895 176.988 216.115C175.758 218.273 174.042 219.969 171.84 221.202C169.703 222.435 167.21 223.052 164.361 223.052ZM163.778 217.317C166.304 217.317 168.344 216.547 169.898 215.005C171.452 213.402 172.229 211.305 172.229 208.716C172.229 206.249 171.452 204.276 169.898 202.796C168.344 201.317 166.304 200.577 163.778 200.577C161.318 200.577 159.375 201.317 157.951 202.796C156.526 204.276 155.814 206.249 155.814 208.716C155.814 211.305 156.526 213.402 157.951 215.005C159.375 216.547 161.318 217.317 163.778 217.317Z" fill="#EBFFEE"/>
<path d="M194.86 223.052C192.011 223.052 189.421 222.435 187.09 221.202C184.823 219.969 183.043 218.273 181.747 216.115C180.452 213.895 179.805 211.429 179.805 208.716C179.805 206.064 180.452 203.69 181.747 201.594C183.043 199.498 184.823 197.864 187.09 196.692C189.421 195.459 192.011 194.842 194.86 194.842C197.709 194.842 200.267 195.459 202.533 196.692C204.8 197.864 206.58 199.498 207.875 201.594C209.235 203.69 209.915 206.064 209.915 208.716C209.915 211.429 209.235 213.895 207.875 216.115C206.58 218.273 204.8 219.969 202.533 221.202C200.267 222.435 197.709 223.052 194.86 223.052ZM194.86 217.317C197.385 217.317 199.425 216.547 200.979 215.005C202.533 213.402 203.31 211.305 203.31 208.716C203.31 206.249 202.533 204.276 200.979 202.796C199.425 201.317 197.385 200.577 194.86 200.577C192.27 200.577 190.198 201.317 188.644 202.796C187.154 204.276 186.41 206.249 186.41 208.716C186.41 211.305 187.154 213.402 188.644 215.005C190.198 216.547 192.27 217.317 194.86 217.317Z" fill="#EBFFEE"/>
<path d="M222.795 223.052C220.27 223.052 218.198 222.312 216.579 220.832C214.96 219.352 214.151 217.132 214.151 214.173V202.426C214.151 201.81 213.827 201.502 213.18 201.502H211.431C210.589 201.502 209.877 201.255 209.294 200.762C208.712 200.207 208.42 199.528 208.42 198.727C208.42 197.864 208.712 197.155 209.294 196.6C209.877 196.045 210.589 195.767 211.431 195.767H213.18C213.827 195.767 214.151 195.459 214.151 194.842V187.073C214.151 186.21 214.442 185.532 215.025 185.038C215.673 184.483 216.45 184.206 217.356 184.206C218.327 184.206 219.104 184.483 219.687 185.038C220.335 185.532 220.659 186.21 220.659 187.073V194.842C220.659 195.459 220.982 195.767 221.63 195.767H226.875C227.652 195.767 228.332 196.045 228.915 196.6C229.497 197.155 229.789 197.864 229.789 198.727C229.789 199.528 229.497 200.207 228.915 200.762C228.397 201.255 227.684 201.502 226.778 201.502H221.63C220.982 201.502 220.659 201.81 220.659 202.426V213.34C220.659 215.93 221.759 217.225 223.961 217.225C224.608 217.225 225.288 217.132 226.001 216.947C226.713 216.762 227.199 216.67 227.458 216.67C228.364 216.67 229.044 216.947 229.497 217.502C230.015 218.057 230.274 218.705 230.274 219.445C230.274 219.999 230.113 220.554 229.789 221.109C229.465 221.603 228.947 221.973 228.235 222.219C227.522 222.466 226.616 222.651 225.515 222.774C224.479 222.959 223.572 223.052 222.795 223.052Z" fill="#EBFFEE"/>
</g>
<defs>
<filter id="filter0_d_2_22" x="0.1" y="0.0999699" width="269.982" height="261.8" filterUnits="userSpaceOnUse" color-interpolation-filters="sRGB">
<feFlood flood-opacity="0" result="BackgroundImageFix"/>
<feColorMatrix in="SourceAlpha" type="matrix" values="0 0 0 0 0 0 0 0 0 0 0 0 0 0 0 0 0 0 127 0" result="hardAlpha"/>
<feOffset dx="-2" dy="6"/>
<feGaussianBlur stdDeviation="7.95"/>
<feComposite in2="hardAlpha" operator="out"/>
<feColorMatrix type="matrix" values="0 0 0 0 0 0 0 0 0 0 0 0 0 0 0 0 0 0 0.25 0"/>
<feBlend mode="normal" in2="BackgroundImageFix" result="effect1_dropShadow_2_22"/>
<feBlend mode="normal" in="SourceGraphic" in2="effect1_dropShadow_2_22" result="shape"/>
</filter>
</defs>
</svg>
