<svg width="135" height="39" viewBox="0 0 135 39" fill="none" xmlns="http://www.w3.org/2000/svg">
<path fill-rule="evenodd" clip-rule="evenodd" d="M135 19.3387C135 30.0187 126.342 38.6765 115.662 38.6766C106.466 38.6766 98.7683 32.2571 96.807 23.6548L0 23.6548L0 16.0852L96.596 16.0852C98.143 6.95401 106.091 -0.000183105 115.662 -0.000183105C126.343 -0.000110626 135 8.65848 135 19.3387ZM105.179 19.3387C105.179 25.1291 109.873 29.8231 115.663 29.8231C121.454 29.823 126.148 25.129 126.148 19.3387C126.148 13.5482 121.454 8.85337 115.663 8.85333C109.873 8.85333 105.179 13.5482 105.179 19.3387Z" fill="white" fill-opacity="0.15"/>
</svg>
