<svg width="52" height="278" viewBox="0 0 52 278" fill="none" xmlns="http://www.w3.org/2000/svg">
<path d="M40.9184 265.098C36.5072 275.708 24.3307 280.733 13.7211 276.322C3.11148 271.911 -1.9134 259.735 2.49716 249.125C4.98305 243.145 9.93576 238.94 15.6842 237.197L11.8839 24.8107L54.2886 0.439835L54.5072 12.674L22.9889 30.2006L26.6875 236.907C27.6987 237.157 28.7035 237.488 29.6949 237.9C40.3045 242.311 45.3293 254.488 40.9184 265.098ZM31.8776 261.34C34.2128 255.723 31.5523 249.276 25.9353 246.94C20.3183 244.605 13.8714 247.266 11.5362 252.883C9.2012 258.5 11.8617 264.947 17.4785 267.282C23.0953 269.617 29.5422 266.956 31.8776 261.34Z" fill="#F1F3F5"/>
</svg>
