<svg width="58" height="327" viewBox="0 0 58 327" fill="none" xmlns="http://www.w3.org/2000/svg">
<path d="M10.143 15.5683C15.3074 3.10452 29.598 -2.81302 42.062 2.35082C54.5261 7.51511 60.4444 21.806 55.2803 34.2702C52.3715 41.2906 46.5671 46.2339 39.8247 48.29L44.5873 297.671L-5.16906 326.348L-5.44329 311.983L31.5394 291.358L26.9054 48.6517C25.7138 48.3586 24.529 47.9715 23.3604 47.4873C10.8966 42.3227 4.97877 28.0323 10.143 15.5683ZM20.7592 19.969C18.0252 26.5675 21.1582 34.1328 27.7565 36.867C34.3552 39.6011 41.9213 36.4688 44.6554 29.87C47.3892 23.2714 44.2558 15.7057 37.6572 12.9717C31.0587 10.2381 23.4933 13.3708 20.7592 19.969Z" fill="#F1F3F5"/>
</svg>
