<svg width="82" height="218" viewBox="0 0 82 218" fill="none" xmlns="http://www.w3.org/2000/svg">
<path fill-rule="evenodd" clip-rule="evenodd" d="M20.4336 -5.83556e-05C9.14878 -5.98354e-05 0.000263099 9.14777 2.58589e-05 20.4326C2.45672e-05 30.2831 6.97071 38.5059 16.2483 40.4371L16.2483 217.627L24.1262 217.627L24.1262 40.5333C33.6483 38.7951 40.8662 30.4566 40.8662 20.4326C40.866 9.14788 31.7183 0.000110971 20.4336 -5.83556e-05ZM20.4336 31.5107C14.3154 31.5107 9.35569 26.5508 9.35549 20.4326C9.3555 14.3142 14.3153 9.35346 20.4336 9.35346C26.5519 9.35353 31.5117 14.3142 31.5117 20.4326C31.5115 26.5507 26.5518 31.5106 20.4336 31.5107Z" fill="#F1F3F5"/>
<path fill-rule="evenodd" clip-rule="evenodd" d="M61.3499 75.3305C50.065 75.3305 40.9165 84.4783 40.9163 95.7631C40.9163 105.48 47.6993 113.613 56.7886 115.686L56.7886 217.974L64.7867 217.974L64.7867 115.909C74.4351 114.274 81.7825 105.877 81.7825 95.7631C81.7823 84.4784 72.6346 75.3306 61.3499 75.3305ZM61.3499 106.84C55.2315 106.84 50.2708 101.88 50.2708 95.7621C50.2708 89.6438 55.2315 84.684 61.3499 84.684C67.468 84.6842 72.4279 89.6439 72.428 95.7621C72.428 101.88 67.4681 106.84 61.3499 106.84Z" fill="#F1F3F5"/>
</svg>
