<svg width="142" height="26" viewBox="0 0 142 26" fill="none" xmlns="http://www.w3.org/2000/svg">
<path d="M12.665 25.3301C5.67061 25.3298 4.62721e-05 19.6595 1.10721e-06 12.665C1.71869e-06 5.67049 5.67058 0.000257057 12.665 -1.12675e-05C18.3635 -1.07694e-05 23.1829 3.76347 24.7734 8.94042L141.551 8.94043L141.551 14.9004L25.1338 14.9004C24.078 20.8289 18.8969 25.3301 12.665 25.3301ZM12.6602 19.5322C16.4524 19.5322 19.5273 16.4573 19.5273 12.665C19.5271 8.87293 16.4523 5.79882 12.6602 5.79882C8.86835 5.79922 5.79419 8.87318 5.79395 12.665C5.79398 16.4571 8.86823 19.5318 12.6602 19.5322Z" fill="#F1F3F5"/>
</svg>
