<svg width="76" height="65" viewBox="0 0 76 65" fill="none" xmlns="http://www.w3.org/2000/svg">
<path d="M46.6614 7.69699C50.559 7.69699 48.2553 23.3264 53.9395 29.0106C59.6237 34.6947 74.7314 31.6111 74.7308 35.7693C74.7301 39.9274 59.6239 37.8808 53.9398 43.5649C48.2556 49.2491 50.8206 64.358 46.6614 64.358C42.5021 64.358 44.549 49.2491 38.8648 43.5649C33.1806 37.8808 18.5902 40.1862 18.5902 35.7691C18.5903 31.3497 33.1801 34.6945 38.8643 29.0103C44.5485 23.3261 43.02 7.69699 46.6614 7.69699Z" fill="#1F87EB"/>
<path d="M12.6231 11.0963C14.3194 11.0963 13.3168 17.8982 15.7906 20.3719C18.2643 22.8457 24.8392 21.5037 24.8389 23.3133C24.8386 25.1229 18.2644 24.2322 15.7907 26.706C13.3169 29.1797 14.4332 35.7551 12.6231 35.7551C10.813 35.7551 11.7038 29.1797 9.23004 26.706C6.7563 24.2322 0.406548 25.2356 0.406569 23.3132C0.406592 21.3899 6.75609 22.8456 9.22984 20.3718C11.7036 17.8981 11.0384 11.0963 12.6231 11.0963Z" fill="#1F87EB"/>
<path d="M33.7223 0.166094C34.7071 0.166094 34.1251 4.11484 35.5611 5.55094C36.9972 6.98703 40.8142 6.20794 40.814 7.25851C40.8139 8.30905 36.9973 7.79198 35.5612 9.22807C34.1251 10.6642 34.7732 14.4814 33.7223 14.4814C32.6715 14.4814 33.1886 10.6642 31.7525 9.22807C30.3164 7.79198 26.6302 8.37445 26.6302 7.25846C26.6302 6.14192 30.3163 6.98697 31.7524 5.55087C33.1885 4.11478 32.8024 0.166094 33.7223 0.166094Z" fill="#1F87EB"/>
</svg>
