<svg width="174" height="23" viewBox="0 0 174 23" fill="none" xmlns="http://www.w3.org/2000/svg">
<path d="M52.5 13.3698H20.5312C19.5506 18.0801 15.3763 21.6196 10.375 21.6198C4.64519 21.6198 0.000183105 16.9746 0 11.2448C1.52588e-05 5.5149 4.64508 0.869812 10.375 0.869812C15.4644 0.870068 19.6945 4.53521 20.5771 9.36981H54.5L83.5615 18.3698H174.363V22.3698H81.624L52.5 13.3698ZM10.375 16.8698C13.4811 16.8694 15.9998 14.351 16 11.2448C16 8.13849 13.4812 5.62023 10.375 5.61981C7.26842 5.61981 4.75 8.13823 4.75 11.2448C4.75018 14.3512 7.26852 16.8698 10.375 16.8698Z" fill="white" fill-opacity="0.1"/>
</svg>
