<svg width="111" height="22" viewBox="0 0 111 22" fill="none" xmlns="http://www.w3.org/2000/svg">
<path fill-rule="evenodd" clip-rule="evenodd" d="M0.808518 10.8569C0.808518 16.5869 5.45358 21.2319 11.1835 21.2319C16.1851 21.2319 20.3602 17.6926 21.3407 12.9819L111.308 12.9819L111.308 8.98191L21.3895 8.98191C20.5069 4.14706 16.2732 0.48199 11.1835 0.481925C5.45362 0.481924 0.808557 5.12703 0.808518 10.8569ZM16.8085 10.8569C16.8085 13.9634 14.2899 16.4817 11.1835 16.4819C8.07693 16.4819 5.55852 13.9635 5.55852 10.8569C5.55854 7.75035 8.07694 5.23192 11.1835 5.23192C14.2899 5.23212 16.8085 7.75048 16.8085 10.8569Z" fill="white" fill-opacity="0.1"/>
</svg>
